<svg width="24" height="23" viewBox="0 0 24 23" fill="none" xmlns="http://www.w3.org/2000/svg">
<path d="M23.6736 19.8697L18.9998 15.3949C18.7889 15.1929 18.5029 15.0807 18.2029 15.0807H17.4388C18.7326 13.4963 19.5014 11.5035 19.5014 9.33568C19.5014 4.17861 15.137 0 9.75071 0C4.36438 0 0 4.17861 0 9.33568C0 14.4927 4.36438 18.6714 9.75071 18.6714C12.0149 18.6714 14.0963 17.9353 15.7512 16.6965V17.4281C15.7512 17.7153 15.8683 17.9891 16.0793 18.1911L20.7531 22.666C21.1937 23.0879 21.9063 23.0879 22.3423 22.666L23.6689 21.3958C24.1096 20.9739 24.1096 20.2916 23.6736 19.8697ZM9.75071 15.0807C6.43641 15.0807 3.75027 12.5134 3.75027 9.33568C3.75027 6.16245 6.43172 3.59065 9.75071 3.59065C13.065 3.59065 15.7512 6.15796 15.7512 9.33568C15.7512 12.5089 13.0697 15.0807 9.75071 15.0807Z" fill="#DF5600" fill-opacity="0.933333"/>
</svg>
