<svg width="64" height="64" viewBox="0 0 64 64" fill="none" xmlns="http://www.w3.org/2000/svg">
<path d="M32 0C14.3226 0 0 14.3116 0 31.9755C0 49.6394 14.3226 63.951 32 63.951C49.6774 63.951 64 49.6394 64 31.9755C64 14.3116 49.6774 0 32 0ZM32 12.3776C38.271 12.3776 43.3548 17.4576 43.3548 23.7237C43.3548 29.9899 38.271 35.0699 32 35.0699C25.729 35.0699 20.6452 29.9899 20.6452 23.7237C20.6452 17.4576 25.729 12.3776 32 12.3776ZM32 56.7307C24.4258 56.7307 17.6387 53.3011 13.0968 47.9374C15.5226 43.3732 20.271 40.2272 25.8065 40.2272C26.1161 40.2272 26.4258 40.2788 26.7226 40.369C28.4 40.9106 30.1548 41.2587 32 41.2587C33.8452 41.2587 35.6129 40.9106 37.2774 40.369C37.5742 40.2788 37.8839 40.2272 38.1936 40.2272C43.729 40.2272 48.4774 43.3732 50.9032 47.9374C46.3613 53.3011 39.5742 56.7307 32 56.7307Z" fill="#139DA7"/>
</svg>
