<svg width="46" height="46" viewBox="0 0 46 46" fill="none" xmlns="http://www.w3.org/2000/svg">
<path d="M22.9999 3.83337C12.4199 3.83337 3.83325 12.42 3.83325 23C3.83325 33.58 12.4199 42.1667 22.9999 42.1667C33.5799 42.1667 42.1666 33.58 42.1666 23C42.1666 12.42 33.5799 3.83337 22.9999 3.83337ZM22.9999 11.5C26.6991 11.5 29.7083 14.5092 29.7083 18.2084C29.7083 21.9075 26.6991 24.9167 22.9999 24.9167C19.3008 24.9167 16.2916 21.9075 16.2916 18.2084C16.2916 14.5092 19.3008 11.5 22.9999 11.5ZM22.9999 38.3334C19.1091 38.3334 14.5091 36.7617 11.2316 32.8134C14.4708 30.2834 18.5533 28.75 22.9999 28.75C27.4466 28.75 31.5291 30.2834 34.7682 32.8134C31.4907 36.7617 26.8908 38.3334 22.9999 38.3334Z" fill="#139DA7"/>
</svg>
